<svg id="visual" viewBox="0 0 960 540" width="960" height="540" xmlns="http://www.w3.org/2000/svg" xmlns:xlink="http://www.w3.org/1999/xlink" version="1.1"><g stroke-width="1" stroke-linejoin="bevel"><path d="M503.3 269L542.3 327L608 293Z" fill="#d6cdf0" stroke="#d6cdf0"></path><path d="M608 293L612 218L503.3 269Z" fill="#cfccf1" stroke="#cfccf1"></path><path d="M612 218L525.3 167L503.3 269Z" fill="#ebd2ec" stroke="#ebd2ec"></path><path d="M542.3 327L627 390L608 293Z" fill="#d6cdf0" stroke="#d6cdf0"></path><path d="M608 293L734.7 240L612 218Z" fill="#b8c9f2" stroke="#b8c9f2"></path><path d="M525.3 167L437.7 208L503.3 269Z" fill="#e1cfee" stroke="#e1cfee"></path><path d="M412.7 374L516.3 412L542.3 327Z" fill="#b0c9f2" stroke="#b0c9f2"></path><path d="M412.7 374L542.3 327L503.3 269Z" fill="#d6cdf0" stroke="#d6cdf0"></path><path d="M542.3 327L516.3 412L627 390Z" fill="#a7c8f1" stroke="#a7c8f1"></path><path d="M437.7 208L398.7 232L503.3 269Z" fill="#cfccf1" stroke="#cfccf1"></path><path d="M710.7 163L637 128L612 218Z" fill="#e6d1ed" stroke="#e6d1ed"></path><path d="M612 218L637 128L525.3 167Z" fill="#ebd2ec" stroke="#ebd2ec"></path><path d="M637 128L503.3 116L525.3 167Z" fill="#cfccf1" stroke="#cfccf1"></path><path d="M525.3 167L503.3 116L437.7 208Z" fill="#b0c9f2" stroke="#b0c9f2"></path><path d="M297 180L337 242L398.7 232Z" fill="#cfccf1" stroke="#cfccf1"></path><path d="M398.7 232L412.7 374L503.3 269Z" fill="#b0c9f2" stroke="#b0c9f2"></path><path d="M627 390L725.7 325L608 293Z" fill="#b8c9f2" stroke="#b8c9f2"></path><path d="M725.7 325L734.7 240L608 293Z" fill="#ebd2ec" stroke="#ebd2ec"></path><path d="M734.7 240L710.7 163L612 218Z" fill="#e6d1ed" stroke="#e6d1ed"></path><path d="M501.3 540L623 469L516.3 412Z" fill="#dcceef" stroke="#dcceef"></path><path d="M516.3 412L623 469L627 390Z" fill="#c0caf2" stroke="#c0caf2"></path><path d="M627 390L776.7 418L725.7 325Z" fill="#d6cdf0" stroke="#d6cdf0"></path><path d="M398.7 232L356 336L412.7 374Z" fill="#c8cbf2" stroke="#c8cbf2"></path><path d="M321 474L435.7 459L412.7 374Z" fill="#a7c8f1" stroke="#a7c8f1"></path><path d="M412.7 374L435.7 459L516.3 412Z" fill="#d6cdf0" stroke="#d6cdf0"></path><path d="M297 180L398.7 232L320 115Z" fill="#e1cfee" stroke="#e1cfee"></path><path d="M398.7 232L337 242L356 336Z" fill="#dcceef" stroke="#dcceef"></path><path d="M505.3 0L450.7 58L503.3 116Z" fill="#ebd2ec" stroke="#ebd2ec"></path><path d="M503.3 116L450.7 58L437.7 208Z" fill="#dcceef" stroke="#dcceef"></path><path d="M623 469L776.7 418L627 390Z" fill="#cfccf1" stroke="#cfccf1"></path><path d="M860.3 285L844.3 219L734.7 240Z" fill="#dcceef" stroke="#dcceef"></path><path d="M435.7 459L501.3 540L516.3 412Z" fill="#c8cbf2" stroke="#c8cbf2"></path><path d="M623 469L664 540L776.7 418Z" fill="#d6cdf0" stroke="#d6cdf0"></path><path d="M320 115L398.7 232L437.7 208Z" fill="#dcceef" stroke="#dcceef"></path><path d="M337 242L249.3 300L356 336Z" fill="#b0c9f2" stroke="#b0c9f2"></path><path d="M637 128L505.3 0L503.3 116Z" fill="#d6cdf0" stroke="#d6cdf0"></path><path d="M450.7 58L320 115L437.7 208Z" fill="#cfccf1" stroke="#cfccf1"></path><path d="M647 0L505.3 0L637 128Z" fill="#cfccf1" stroke="#cfccf1"></path><path d="M840.3 95L764.7 79L710.7 163Z" fill="#e1cfee" stroke="#e1cfee"></path><path d="M710.7 163L764.7 79L637 128Z" fill="#b8c9f2" stroke="#b8c9f2"></path><path d="M844.3 219L710.7 163L734.7 240Z" fill="#b8c9f2" stroke="#b8c9f2"></path><path d="M501.3 540L664 540L623 469Z" fill="#a7c8f1" stroke="#a7c8f1"></path><path d="M345 0L320 115L450.7 58Z" fill="#e6d1ed" stroke="#e6d1ed"></path><path d="M764.7 79L647 0L637 128Z" fill="#b0c9f2" stroke="#b0c9f2"></path><path d="M860.3 285L734.7 240L725.7 325Z" fill="#c0caf2" stroke="#c0caf2"></path><path d="M776.7 418L860.3 285L725.7 325Z" fill="#b0c9f2" stroke="#b0c9f2"></path><path d="M297 180L249.3 300L337 242Z" fill="#c8cbf2" stroke="#c8cbf2"></path><path d="M356 336L321 474L412.7 374Z" fill="#dcceef" stroke="#dcceef"></path><path d="M435.7 459L387.7 540L501.3 540Z" fill="#b0c9f2" stroke="#b0c9f2"></path><path d="M214.3 163L249.3 300L297 180Z" fill="#c0caf2" stroke="#c0caf2"></path><path d="M186.3 377L321 474L356 336Z" fill="#cfccf1" stroke="#cfccf1"></path><path d="M505.3 0L412.7 0L450.7 58Z" fill="#b0c9f2" stroke="#b0c9f2"></path><path d="M321 474L387.7 540L435.7 459Z" fill="#c8cbf2" stroke="#c8cbf2"></path><path d="M853.3 0L731.7 0L764.7 79Z" fill="#a7c8f1" stroke="#a7c8f1"></path><path d="M764.7 79L731.7 0L647 0Z" fill="#b8c9f2" stroke="#b8c9f2"></path><path d="M664 540L758.7 540L776.7 418Z" fill="#ebd2ec" stroke="#ebd2ec"></path><path d="M776.7 418L888.3 346L860.3 285Z" fill="#b8c9f2" stroke="#b8c9f2"></path><path d="M844.3 219L840.3 95L710.7 163Z" fill="#b8c9f2" stroke="#b8c9f2"></path><path d="M960 125L840.3 95L844.3 219Z" fill="#d6cdf0" stroke="#d6cdf0"></path><path d="M860.3 468L888.3 346L776.7 418Z" fill="#a7c8f1" stroke="#a7c8f1"></path><path d="M860.3 285L960 208L844.3 219Z" fill="#c8cbf2" stroke="#c8cbf2"></path><path d="M203.3 472L342 540L321 474Z" fill="#c8cbf2" stroke="#c8cbf2"></path><path d="M321 474L342 540L387.7 540Z" fill="#cfccf1" stroke="#cfccf1"></path><path d="M412.7 0L345 0L450.7 58Z" fill="#b8c9f2" stroke="#b8c9f2"></path><path d="M246.3 88L214.3 163L297 180Z" fill="#e6d1ed" stroke="#e6d1ed"></path><path d="M758.7 540L860.3 468L776.7 418Z" fill="#b0c9f2" stroke="#b0c9f2"></path><path d="M246.3 88L297 180L320 115Z" fill="#e1cfee" stroke="#e1cfee"></path><path d="M345 0L246.3 88L320 115Z" fill="#c8cbf2" stroke="#c8cbf2"></path><path d="M80.7 278L186.3 377L249.3 300Z" fill="#e6d1ed" stroke="#e6d1ed"></path><path d="M249.3 300L186.3 377L356 336Z" fill="#c8cbf2" stroke="#c8cbf2"></path><path d="M960 332L960 298L888.3 346Z" fill="#b8c9f2" stroke="#b8c9f2"></path><path d="M888.3 346L960 298L860.3 285Z" fill="#cfccf1" stroke="#cfccf1"></path><path d="M960 0L853.3 0L840.3 95Z" fill="#c0caf2" stroke="#c0caf2"></path><path d="M840.3 95L853.3 0L764.7 79Z" fill="#dcceef" stroke="#dcceef"></path><path d="M186.3 377L203.3 472L321 474Z" fill="#cfccf1" stroke="#cfccf1"></path><path d="M960 487L960 332L888.3 346Z" fill="#dcceef" stroke="#dcceef"></path><path d="M960 298L960 208L860.3 285Z" fill="#c8cbf2" stroke="#c8cbf2"></path><path d="M758.7 540L883.3 540L860.3 468Z" fill="#c8cbf2" stroke="#c8cbf2"></path><path d="M860.3 468L960 487L888.3 346Z" fill="#e6d1ed" stroke="#e6d1ed"></path><path d="M960 208L960 125L844.3 219Z" fill="#d6cdf0" stroke="#d6cdf0"></path><path d="M132.7 110L120.7 178L214.3 163Z" fill="#e1cfee" stroke="#e1cfee"></path><path d="M214.3 163L120.7 178L249.3 300Z" fill="#dcceef" stroke="#dcceef"></path><path d="M345 0L206.3 0L246.3 88Z" fill="#cfccf1" stroke="#cfccf1"></path><path d="M132.7 110L214.3 163L246.3 88Z" fill="#e6d1ed" stroke="#e6d1ed"></path><path d="M186.3 377L127.7 441L203.3 472Z" fill="#c0caf2" stroke="#c0caf2"></path><path d="M206.3 0L132.7 110L246.3 88Z" fill="#cfccf1" stroke="#cfccf1"></path><path d="M883.3 540L960 487L860.3 468Z" fill="#b8c9f2" stroke="#b8c9f2"></path><path d="M86.7 369L127.7 441L186.3 377Z" fill="#a7c8f1" stroke="#a7c8f1"></path><path d="M203.3 472L176.3 540L342 540Z" fill="#cfccf1" stroke="#cfccf1"></path><path d="M127.7 441L176.3 540L203.3 472Z" fill="#d6cdf0" stroke="#d6cdf0"></path><path d="M120.7 178L80.7 278L249.3 300Z" fill="#ebd2ec" stroke="#ebd2ec"></path><path d="M0 281L80.7 278L0 145Z" fill="#b0c9f2" stroke="#b0c9f2"></path><path d="M80.7 278L86.7 369L186.3 377Z" fill="#c8cbf2" stroke="#c8cbf2"></path><path d="M127.7 441L103.7 540L176.3 540Z" fill="#a7c8f1" stroke="#a7c8f1"></path><path d="M883.3 540L960 540L960 487Z" fill="#c8cbf2" stroke="#c8cbf2"></path><path d="M960 125L960 0L840.3 95Z" fill="#ebd2ec" stroke="#ebd2ec"></path><path d="M0 412L103.7 540L127.7 441Z" fill="#ebd2ec" stroke="#ebd2ec"></path><path d="M206.3 0L88.7 0L132.7 110Z" fill="#c0caf2" stroke="#c0caf2"></path><path d="M0 145L80.7 278L120.7 178Z" fill="#c0caf2" stroke="#c0caf2"></path><path d="M80.7 278L0 332L86.7 369Z" fill="#b8c9f2" stroke="#b8c9f2"></path><path d="M86.7 369L0 412L127.7 441Z" fill="#c8cbf2" stroke="#c8cbf2"></path><path d="M0 145L120.7 178L132.7 110Z" fill="#cfccf1" stroke="#cfccf1"></path><path d="M0 281L0 332L80.7 278Z" fill="#ebd2ec" stroke="#ebd2ec"></path><path d="M0 87L0 145L132.7 110Z" fill="#b0c9f2" stroke="#b0c9f2"></path><path d="M0 332L0 412L86.7 369Z" fill="#b8c9f2" stroke="#b8c9f2"></path><path d="M88.7 0L0 87L132.7 110Z" fill="#b0c9f2" stroke="#b0c9f2"></path><path d="M0 412L0 540L103.7 540Z" fill="#c8cbf2" stroke="#c8cbf2"></path><path d="M88.7 0L0 0L0 87Z" fill="#e1cfee" stroke="#e1cfee"></path></g></svg>